# xmcd
#
# Track frame offsets:
#	150
#	24345
#	42180
#	55750
#	75335
#	94205
#	111972
#	130567
#	142542
#	167535
#	190142
#
# Disc length: 2856 seconds
#
# Revision: 1
# Processed by: cddbd v1.5.2PL0 Copyright (c) Steve Scherf et al.
# Submitted via: audiograbber 1.83.01
#
DISCID=780b260b
DTITLE=Will Porter - Happy!
DYEAR=2003
DGENRE=Blues
TTITLE0=I Thought You Were the Right One
TTITLE1=Don't Pass Me By
TTITLE2=San Francisco Bay
TTITLE3=The Blues Aren't the Songs We Sing
TTITLE4=Easy Street
TTITLE5=Sweet Maybe
TTITLE6=Monongahela (I Remember)
TTITLE7=I'm Gonna Sit Right Down (And Write Myself a Letter)
TTITLE8=Like a Circle (Around the Sun)
TTITLE9=Adios
TTITLE10=Don't Pass Me By
EXTD=
EXTT0=
EXTT1=
EXTT2=
EXTT3=
EXTT4=
EXTT5=
EXTT6=
EXTT7=
EXTT8=
EXTT9=
EXTT10=
PLAYORDER=
